<svg xmlns="http://www.w3.org/2000/svg" viewBox="0 0 880 640" width="100%" style="max-width:880px;font-family:system-ui,-apple-system,sans-serif">
  <defs>
    <linearGradient id="paper" x1="0%" y1="0%" x2="100%" y2="100%">
      <stop offset="0%" stop-color="#fcf7f1"/>
      <stop offset="100%" stop-color="#fbf1e1"/>
    </linearGradient>
    <filter id="sh"><feDropShadow dx="0" dy="2" stdDeviation="4" flood-opacity="0.10"/></filter>
    <marker id="arr" markerWidth="8" markerHeight="8" refX="7" refY="4" orient="auto">
      <path d="M0,0 L8,4 L0,8 Z" fill="#D95B43"/>
    </marker>
  </defs>

  <!-- background -->
  <rect width="880" height="640" rx="16" fill="url(#paper)"/>
  <text x="440" y="36" text-anchor="middle" font-size="18" font-weight="700" fill="#1a1a1a">Parallax — 5-Layer Technical Architecture</text>

  <!-- ═══ LAYER 1: DATA ═══ -->
  <rect x="40" y="76" width="800" height="88" rx="10" fill="#fff" stroke="#D95B43" stroke-width="2" filter="url(#sh)"/>
  <rect x="40" y="76" width="110" height="88" rx="10" fill="#D95B43"/>
  <text x="95" y="108" text-anchor="middle" font-size="13" font-weight="700" fill="#fff">① DATA</text>
  <text x="95" y="126" text-anchor="middle" font-size="9" fill="#fce8e4">Input</text>

  <text x="170" y="104" font-size="12" font-weight="600" fill="#1a1a1a">Macro Event Detection</text>
  <rect x="170" y="114" width="130" height="28" rx="6" fill="#fcf7f1" stroke="#e8d5c4"/>
  <text x="235" y="132" text-anchor="middle" font-size="10" fill="#333">FOMC · Fed Rate (DFF)</text>
  <rect x="312" y="114" width="120" height="28" rx="6" fill="#fcf7f1" stroke="#e8d5c4"/>
  <text x="372" y="132" text-anchor="middle" font-size="10" fill="#333">CPI (CPIAUCSL YoY)</text>
  <rect x="444" y="114" width="110" height="28" rx="6" fill="#fcf7f1" stroke="#e8d5c4"/>
  <text x="499" y="132" text-anchor="middle" font-size="10" fill="#333">IPO (SPCXx · CRCL)</text>
  <rect x="566" y="114" width="150" height="28" rx="6" fill="#fff3e0" stroke="#D95B43" stroke-dasharray="4,2"/>
  <text x="641" y="132" text-anchor="middle" font-size="10" fill="#D95B43">+ Dynamic discovery (Gemini)</text>
  

  <line x1="440" y1="164" x2="440" y2="184" stroke="#D95B43" stroke-width="2" marker-end="url(#arr)"/>

  <!-- ═══ LAYER 2: ACQUISITION ═══ -->
  <rect x="40" y="184" width="800" height="108" rx="10" fill="#fff" stroke="#2d6a4f" stroke-width="2" filter="url(#sh)"/>
  <rect x="40" y="184" width="110" height="108" rx="10" fill="#2d6a4f"/>
  <text x="95" y="220" text-anchor="middle" font-size="12" font-weight="700" fill="#fff">② ACQUIRE</text>
  <text x="95" y="238" text-anchor="middle" font-size="9" fill="#b7e4c7">On-chain</text>

  <text x="170" y="208" font-size="12" font-weight="600" fill="#1a1a1a">Mantle AI Agent Skills + Historical RPC</text>
  <text x="170" y="224" font-size="9" fill="#666">@mantleio/mantle-core · mantle-client.ts · Mantle Mainnet</text>

  <!-- 3 legs -->
  <rect x="170" y="234" width="200" height="44" rx="6" fill="#f0faf4" stroke="#2d6a4f"/>
  <text x="270" y="252" text-anchor="middle" font-size="10" font-weight="600" fill="#2d6a4f">Leg 1 · FRED API</text>
  <text x="270" y="268" text-anchor="middle" font-size="9" fill="#555">macro surprise magnitude</text>

  <rect x="382" y="234" width="200" height="44" rx="6" fill="#f0faf4" stroke="#2d6a4f"/>
  <text x="482" y="252" text-anchor="middle" font-size="10" font-weight="600" fill="#2d6a4f">Leg 2 · Merchant Moe LB</text>
  <text x="482" y="268" text-anchor="middle" font-size="9" fill="#555">SPCXx getActiveId() @ block</text>

  <rect x="594" y="234" width="200" height="44" rx="6" fill="#f0faf4" stroke="#2d6a4f"/>
  <text x="694" y="252" text-anchor="middle" font-size="10" font-weight="600" fill="#2d6a4f">Leg 3 · Aave V3</text>
  <text x="694" y="268" text-anchor="middle" font-size="9" fill="#555">USDC · USDT0 · USDe reserves</text>


  <line x1="440" y1="292" x2="440" y2="312" stroke="#D95B43" stroke-width="2" marker-end="url(#arr)"/>

  <!-- ═══ LAYER 3: ENGINE ═══ -->
  <rect x="40" y="312" width="800" height="100" rx="10" fill="#fff" stroke="#1a1a1a" stroke-width="2" filter="url(#sh)"/>
  <rect x="40" y="312" width="110" height="100" rx="10" fill="#1a1a1a"/>
  <text x="95" y="348" text-anchor="middle" font-size="12" font-weight="700" fill="#fcf7f1">③ ENGINE</text>
  <text x="95" y="366" text-anchor="middle" font-size="9" fill="#aaa">Compute</text>

  <text x="170" y="336" font-size="12" font-weight="600" fill="#1a1a1a">Correlation Engine</text>
  <text x="170" y="352" font-size="9" fill="#666">computeEventDelta · Pearson r cross-event · cache-first run-correlation</text>

  <rect x="170" y="362" width="175" height="36" rx="6" fill="#f5f5f5" stroke="#ccc"/>
  <text x="257" y="378" text-anchor="middle" font-size="9" fill="#333">macro Δ × xStocks price Δ</text>
  <text x="257" y="392" text-anchor="middle" font-size="9" fill="#333">× Aave utilization Δ</text>

  <rect x="357" y="362" width="175" height="36" rx="6" fill="#f5f5f5" stroke="#ccc"/>
  <text x="444" y="378" text-anchor="middle" font-size="9" fill="#333">capital_flow_direction</text>
  <text x="444" y="392" text-anchor="middle" font-size="9" fill="#333">risk_on · risk_off · neutral</text>

  <rect x="544" y="362" width="250" height="36" rx="6" fill="#fff8e1" stroke="#f9a825"/>
  <text x="669" y="378" text-anchor="middle" font-size="10" font-weight="600" fill="#333">Gemini 2.5 Flash Synthesis</text>
  <text x="669" y="392" text-anchor="middle" font-size="9" fill="#666">institutional dossier + ASCII charts</text>

  <line x1="440" y1="412" x2="440" y2="432" stroke="#D95B43" stroke-width="2" marker-end="url(#arr)"/>

  <!-- ═══ LAYER 4: GATE ═══ -->
  <rect x="40" y="432" width="800" height="88" rx="10" fill="#fff" stroke="#2d6a4f" stroke-width="2" filter="url(#sh)"/>
  <rect x="40" y="432" width="110" height="88" rx="10" fill="#1e4d3a"/>
  <text x="95" y="464" text-anchor="middle" font-size="12" font-weight="700" fill="#fff">④ GATE</text>
  <text x="95" y="482" text-anchor="middle" font-size="9" fill="#b7e4c7">x402</text>

  <text x="170" y="458" font-size="12" font-weight="600" fill="#1a1a1a">x402 Payment Gate · Mantle Sepolia</text>
  <rect x="170" y="468" width="280" height="40" rx="6" fill="#f0faf4" stroke="#2d6a4f"/>
  <text x="310" y="486" text-anchor="middle" font-size="10" fill="#333">Free → HTTP 402 teaser + PAYMENT-REQUIRED</text>
  <text x="310" y="500" text-anchor="middle" font-size="9" fill="#666">USDC EIP-3009 · QuestFlow facilitator</text>

  <rect x="464" y="468" width="330" height="40" rx="6" fill="#e8f5e9" stroke="#2d6a4f" stroke-width="1.5"/>
  <text x="629" y="486" text-anchor="middle" font-size="10" font-weight="600" fill="#2d6a4f">Premium → full report unlock</text>
  <text x="629" y="500" text-anchor="middle" font-size="9" fill="#555">GET /api/report/:eventId</text>

  <line x1="440" y1="520" x2="440" y2="540" stroke="#D95B43" stroke-width="2" marker-end="url(#arr)"/>

  <!-- ═══ LAYER 5: REPUTATION ═══ -->
  <rect x="40" y="540" width="800" height="88" rx="10" fill="#fff" stroke="#D95B43" stroke-width="2" filter="url(#sh)"/>
  <rect x="40" y="540" width="110" height="88" rx="10" fill="#D95B43"/>
  <text x="95" y="572" text-anchor="middle" font-size="12" font-weight="700" fill="#fff">⑤ TRUST</text>
  <text x="95" y="590" text-anchor="middle" font-size="9" fill="#fce8e4">ERC-8004</text>

  <text x="170" y="566" font-size="12" font-weight="600" fill="#1a1a1a">ERC-8004 Reputation Loop · Agent 5003:308</text>

  <rect x="170" y="576" width="155" height="40" rx="6" fill="#fcf7f1" stroke="#e8d5c4"/>
  <text x="247" y="594" text-anchor="middle" font-size="9" fill="#333">Validate Alpha</text>
  <text x="247" y="608" text-anchor="middle" font-size="9" fill="#666">wallet · IPFS comment</text>

  <text x="340" y="600" font-size="16" fill="#D95B43">→</text>

  <rect x="358" y="576" width="155" height="40" rx="6" fill="#fcf7f1" stroke="#e8d5c4"/>
  <text x="435" y="594" text-anchor="middle" font-size="9" fill="#333">giveFeedback on-chain</text>
  <text x="435" y="608" text-anchor="middle" font-size="9" fill="#666">readAllFeedback · MantleScan</text>

  <text x="528" y="600" font-size="16" fill="#D95B43">→</text>

  <rect x="546" y="576" width="248" height="40" rx="6" fill="#fff3e0" stroke="#D95B43"/>
  <text x="670" y="594" text-anchor="middle" font-size="10" font-weight="600" fill="#D95B43">Reputation curve compounds</text>
  <text x="670" y="608" text-anchor="middle" font-size="9" fill="#666">trust ↑ for future report consumers</text>

  <!-- flywheel arrow -->
  <path d="M 820 584 C 860 584, 860 120, 820 120" fill="none" stroke="#D95B43" stroke-width="1.5" stroke-dasharray="6,4" opacity="0.5"/>
  <text x="848" y="360" text-anchor="middle" font-size="8" fill="#D95B43" transform="rotate(90 848 360)">flywheel</text>

  <!-- removed note -->
  <text x="440" y="632" text-anchor="middle" font-size="8" fill="#aaa">Not included: InsightX · geopolitical triggers · A2A · unused mantle sub-skills</text>
</svg>